PathFileType	4	(X/Y/Z)	C:/Users/beibeiliu/ov580/test_trc\sequence.32_training_dense_right.trc
DataRate	CameraRate	NumFrames	NumMarkers	Units	OrigDataRate	OrigDataStartFrame	OrigNumFrames
120	120	16	19	mm	120	78	310
Frame#	Time	ThumbCMC			ThumbMCP			ThumbIP			ThumbTip			IndexMCP			IndexPIP			IndexTip			MiddleMCP			MiddlePIP			MiddleTip			RingMCP			RingPIP			RingTip			PinkyMCP			PinkyPIP			PinkyTip			BackHand1			BackHand2			BackHand3	
		X0	Y0	Z0	X1	Y1	Z1	X2	Y2	Z2	X3	Y3	Z3	X4	Y4	Z4	X5	Y5	Z5	X6	Y6	Z6	X7	Y7	Z7	X8	Y8	Z8	X9	Y9	Z9	X10	Y10	Z10	X11	Y11	Z11	X12	Y12	Z12	X13	Y13	Z13	X14	Y14	Z14	X15	Y15	Z15	X16	Y16	Z16	X17	Y17	Z17	X18	Y18	Z18	
77	0.641667	100.345	-40.7085	18.7267	101.843	-54.9948	-9.37158	115.562	-55.5478	-30.4461	141.551	-53.9516	-39.7494	98.2474	-15.0053	-41.2215	94.2188	-12.2439	-60.3331	91.6136	-3.30747	-79.9348	125.409	-7.62602	-44.7055	123.447	-1.07075	-62.9305	129.155	13.4217	-81.9772	149.714	-8.23499	-38.2821	148.406	-3.63244	-53.9017	151.845	6.20757	-68.7961	168.035	-17.3272	-20.6249	175.329	-11.0032	-34.7758	182.344	2.66084	-46.2012	142.228	-12.5883	3.57059	143.424	-10.4449	27.4415	118.056	-11.8978	14.5334	
78	0.65	100.455	-42.2957	20.8667	100.003	-57.8611	-8.89142	118.432	-55.5488	-34.5157	143.939	-51.0187	-35.0864	103.297	-17.9157	-37.8536	93.4154	-13.2193	-58.5698	91.694	-4.54736	-78.8031	125.788	-9.85576	-40.7391	129.071	-1.08743	-61.7749	128.903	11.8096	-80.476	149.771	-10.7105	-36.1894	153.911	-2.27154	-53.8202	155.287	5.97907	-70.2542	168.815	-16.8383	-23.3346	175.281	-12.9841	-32.3124	178.601	0.20018	-43.8781	141.558	-11.2684	5.42274	138.767	-9.64021	31.4616	117.021	-12.8491	14.0959	
79	0.658333	101.253	-43.6722	18.425	100.724	-57.3914	-11.5045	117.231	-57.2364	-27.73	142.65	-51.0109	-33.9818	99.5526	-18.0686	-41.3032	97.2929	-12.0843	-61.4925	88.3633	-6.40413	-78.3952	124.453	-10.5187	-41.8803	127.161	-2.8011	-61.3612	127.616	13.6544	-83.7364	146.629	-13.2125	-33.5229	151.452	-3.41878	-54.1478	156.218	6.4493	-71.7911	169.449	-17.0743	-21.6936	171.341	-13.2361	-35.4926	181.96	1.02619	-43.1351	141.327	-12.5108	6.86957	138.081	-10.8349	29.0352	115.265	-15.4774	16.0664	
80	0.666667	101.333	-43.3331	19.5017	102.709	-56.6822	-13.6133	119.441	-56.315	-31.21	145.197	-53.5362	-38.7375	103.619	-16.3005	-41.7396	96.1092	-12.9286	-60.5321	90.6417	-5.70455	-79.266	127.315	-10.0304	-43.7907	129.947	-1.40244	-62.5349	127.392	11.414	-81.5767	147.842	-12.2345	-33.6164	151.356	-5.73601	-52.8636	155.073	5.80838	-70.1105	166.108	-17.4988	-22.3963	175.767	-12.0393	-35.6468	183.93	1.07132	-45.9175	140.273	-12.816	6.28946	139.689	-12.1681	29.4968	115.489	-15.741	15.9087	
81	0.675	102.607	-43.4616	18.5173	104.043	-56.8692	-11.8931	119.216	-55.9944	-32.0305	143.545	-50.3782	-34.6656	101.003	-17.1161	-41.0064	96.1199	-13.3173	-61.027	90.0746	-4.97473	-81.0606	129.734	-7.26126	-45.5397	130.713	0.0807385	-65.9926	128.055	12.3663	-83.5389	150.365	-10.6356	-35.63	151.6	-3.16188	-55.0599	159.78	7.08272	-69.6136	168.61	-16.9283	-23.5784	177.286	-12.0684	-34.6835	182.17	0.506459	-43.4229	142.478	-13.304	7.96013	143.98	-10.675	31.3645	120.011	-13.6343	15.0013	
82	0.683333	101.046	-43.6151	17.401	104.422	-55.6444	-11.8269	121.39	-52.7613	-31.3434	144.818	-49.7119	-36.9632	105.44	-16.2034	-42.5425	99.1052	-12.7161	-59.67	95.266	-7.40274	-78.576	128.353	-8.89539	-42.9628	126.654	-2.45344	-60.6921	130.021	14.0458	-84.945	150.117	-10.439	-36.6637	152.528	-3.40828	-55.9942	158.072	4.76808	-68.6155	167.424	-17.8599	-20.8791	177.74	-12.5866	-34.077	181.581	-1.03897	-42.9773	145.111	-11.8427	3.2065	142.171	-9.60134	28.2831	118.893	-14.0401	12.6015	
83	0.691667	105.071	-41.0144	19.8275	103.693	-54.8482	-12.6999	117.986	-53.974	-31.3058	143.053	-50.4497	-40.0257	106.782	-15.2249	-39.5196	97.2722	-11.1737	-61.419	90.7592	-5.7351	-81.1305	131.185	-7.49224	-41.6888	130.257	-1.15289	-61.5378	130.704	12.0633	-82.4789	148.567	-11.8939	-33.831	154.837	-5.08842	-51.6666	156.028	7.4035	-70.6806	169.814	-16.652	-24.5644	176.959	-11.0191	-37.7799	181.918	-0.436357	-44.0054	147.679	-10.4728	5.21955	146.862	-10.5425	32.5963	120.195	-10.8008	14.1611	
84	0.7	104.938	-40.2553	19.7143	104.582	-51.6398	-10.3488	118.05	-52.9782	-33.5929	140.025	-51.0689	-38.7557	101.601	-15.0453	-40.2945	100.064	-11.5239	-62.0087	93.3126	-5.7019	-81.6205	129.076	-8.80955	-41.5859	129.935	1.80598	-64.519	133.822	14.865	-83.2801	148.504	-9.23482	-37.2378	158.145	-2.66461	-51.9224	155.707	6.42092	-69.9276	168.906	-18.023	-19.374	178.873	-12.4708	-32.6634	181.757	-1.38762	-45.1108	142.858	-10.7346	2.71439	145.51	-9.42515	29.1278	122.051	-11.4567	12.8942	
85	0.708333	105.316	-39.0195	18.0138	103.073	-52.4519	-10.6885	119.109	-50.9291	-30.7736	140.088	-51.9351	-42.0256	104.799	-15.5716	-38.8478	99.508	-11.038	-60.3854	93.6978	-4.68609	-81.8277	127.842	-5.97861	-45.5155	131.997	0.663556	-61.2924	132.512	16.2188	-84.0652	153.896	-8.96848	-36.5414	154.262	-2.86743	-52.2174	161.075	8.93471	-69.2713	170.79	-16.3973	-23.646	178.211	-12.0589	-33.8292	183.903	1.00261	-48.3498	144.137	-11.3761	6.27819	146.22	-11.6328	32.6885	122.903	-11.1941	17.6792	
86	0.716667	104.04	-38.928	17.5847	101.587	-53.8098	-10.8378	117.304	-51.4007	-35.2636	139.657	-51.9543	-43.7116	104.321	-13.0064	-41.486	101.083	-11.7253	-58.9846	96.2758	-3.43874	-84.3397	130.84	-4.7913	-42.8717	132.06	3.4285	-63.233	131.802	16.5491	-85.0225	153.942	-7.36743	-38.0475	154.307	-0.137659	-55.451	156.72	10.6823	-72.322	170.086	-16.7441	-23.3672	176.865	-9.95874	-36.9324	182.818	0.836098	-45.4451	146.212	-11.5062	4.0368	147.337	-8.4206	31.3661	121.864	-9.11631	14.2722	
87	0.725	105.524	-38.8041	20.2834	104.229	-49.4649	-13.3804	118.403	-50.3394	-36.0154	143.848	-47.4396	-43.4607	106.495	-10.7923	-40.9683	101.243	-9.54172	-59.1965	92.4347	-4.3716	-79.6235	129.652	-2.52574	-44.8005	128.779	3.43459	-62.7794	133.839	16.6763	-81.5819	151.913	-6.24074	-37.1899	157.461	0.942428	-54.734	158.375	10.4226	-70.4835	172.717	-15.794	-22.7493	178.02	-10.5402	-36.8901	188.139	2.29979	-46.2147	148.372	-8.91859	6.75545	147.41	-10.6043	29.468	123.135	-10.3706	17.774	
88	0.733333	106.083	-38.781	21.2796	102.417	-51.0614	-13.2369	118.245	-48.3149	-32.4296	142.705	-44.8511	-39.9337	107.475	-10.1243	-39.8309	101.835	-6.50138	-63.131	92.7221	-3.80302	-84.0043	133.254	-0.768514	-44.1288	132.001	5.13062	-61.3007	131.498	19.324	-82.4727	149.38	-5.02259	-38.9528	155.123	3.27013	-56.985	161.651	14.3636	-73.1587	169.385	-13.8739	-23.2227	180.099	-7.71576	-37.1548	187.791	5.60681	-48.0451	145.611	-9.48001	2.5719	145.659	-9.09546	28.1402	121.66	-8.48463	16.2991	
89	0.741667	106.515	-34.7275	16.1171	103.894	-47.8741	-12.5863	117.986	-45.5985	-36.0834	139.873	-43.905	-41.5056	105.802	-8.88457	-40.2022	98.593	-7.72045	-59.8311	97.1127	-2.48158	-85.621	132.307	-0.453051	-43.0552	129.655	8.28315	-64.5558	130.494	20.8754	-85.8156	149.943	-2.53069	-38.9829	156.739	3.41585	-55.0132	157.019	13.8106	-72.8343	172.747	-12.062	-23.8689	176.764	-6.85784	-36.6944	185.62	4.70128	-45.1542	149.434	-7.67107	5.99193	150.238	-8.38795	28.3247	120.639	-5.5567	14.1884	
90	0.75	106.048	-34.3883	17.996	103.308	-43.7636	-15.7763	118.046	-40.8236	-38.7768	141.216	-41.2405	-47.7496	103.799	-5.90123	-41.7026	103.858	-6.28588	-62.3796	97.3765	-6.20605	-84.5539	133.188	1.53039	-42.001	130.332	9.02586	-64.5745	132.931	20.473	-83.5108	153.74	-2.09797	-36.4875	156.579	6.75117	-59.2573	160.48	16.0956	-76.1342	171.515	-11.8614	-24.29	181.833	-5.98814	-37.2618	186.392	3.946	-47.4393	147.956	-5.93649	2.34674	147.878	-9.08473	32.4057	121.507	-3.78448	15.152	
91	0.758333	110.184	-29.9596	17.3385	102.903	-38.9732	-16.3172	115.421	-40.1147	-34.0243	135.36	-39.4448	-50.9018	110.037	-3.41002	-42.8472	103.251	-5.73708	-67.0947	100.782	-9.59496	-88.2035	134.567	3.88438	-44.5985	133.681	12.52	-68.515	135.897	22.0991	-87.5979	154.136	0.498983	-38.9175	161.316	8.60195	-59.3352	160.983	15.4176	-74.8971	176.123	-11.7062	-23.6811	183.079	-4.6531	-40.054	188.982	4.49981	-48.3382	151.883	-3.89776	1.98414	153.358	-7.60731	30.3741	125.48	-3.72511	17.6468	
92	0.766667	109.424	-26.3308	14.9999	106.33	-34.6606	-13.323	112.905	-35.7202	-36.8514	133.186	-34.43	-49.6273	110.008	-1.55925	-43.2024	105.687	-5.23916	-68.5099	105.713	-13.9315	-89.2444	136.925	6.90862	-44.7076	134.967	13.3593	-67.9766	142.722	21.1052	-86.8206	155.948	1.33528	-39.114	162.743	7.32456	-55.3132	168.724	17.2533	-78.365	178.672	-9.19064	-27.2394	181.703	-5.8243	-37.5494	191.904	6.17898	-49.7436	155.205	-3.33131	3.60217	157.236	-7.61497	31.423	128.994	-2.88536	16.8246	
